<svg xmlns="http://www.w3.org/2000/svg"
    width="512" 
    height="512" 
    viewBox="0 0 512 512" >
  <path
      d="M124.6,407.6c-27.8,0 -52.8,16.9 -63.2,42.7c-9.9,24.7 8.2,51.7 34.9,51.7H168c19.4,0 32.7,-19.6 25.4,-37.6l-5.6,-14C177.4,424.5 152.4,407.6 124.6,407.6L124.6,407.6z"
      fill="#F6CD3A"
      />
  <path
      d="M383.8,96.3c-24.6,0.4 -44.2,21 -44.2,45.7v62.6c0,11 -8.9,19.9 -19.9,19.9c-11,0 -19.9,-8.9 -19.9,-19.9V94c0,-38.1 -30.9,-69 -69,-69s-69,30.9 -69,69V265c0,11 -8.9,19.9 -19.9,19.9s-19.9,-8.9 -19.9,-19.9V181c0,-20.7 -16.9,-38 -37.6,-37.7C64.2,143.7 48,160.1 48,180.2v86.9c0,50.6 41,91.7 91.7,91.7h22.1V502h138V314.4h18.2c61.6,0 111.6,-50 111.6,-111.6v-61.5C429.5,116.2 408.9,95.9 383.8,96.3L383.8,96.3z"
      fill="#6DB065"/>
  <path
      d="M398.6,387c-33.9,0 -64.4,20.6 -77,52L296.2,502h136.9c32.5,0 54.6,-32.8 42.5,-62.9C462.9,407.6 432.4,387 398.6,387z"
      fill="#F6CD3A"/>
  <path
      d="M273.5,407.6c-27.8,0 -52.8,16.9 -63.2,42.7c-9.9,24.7 8.2,51.7 34.9,51.7h56.6c26.6,0 44.8,-26.9 34.9,-51.7C326.4,424.5 301.3,407.6 273.5,407.6z"
      fill="#E88205"/>
</svg>